HIERARCHY
ROOT Hips
{
  OFFSET 5.72205e-005 65.662 3.42586
  CHANNELS 6 Xposition Yposition Zposition Zrotation Xrotation Yrotation
  JOINT Chest
  {
    OFFSET 0 8.7983 -4.7612
    CHANNELS 6 Xposition Yposition Zposition Zrotation Xrotation Yrotation
    JOINT Chest2
    {
      OFFSET 0 8.0291 0.4195
      CHANNELS 6 Xposition Yposition Zposition Zrotation Xrotation Yrotation
      JOINT Chest3
      {
        OFFSET 0 9.9351 -2.2114
        CHANNELS 6 Xposition Yposition Zposition Zrotation Xrotation Yrotation
        JOINT Neck
        {
          OFFSET 0 22.3885 -0.4656
          CHANNELS 6 Xposition Yposition Zposition Zrotation Xrotation Yrotation
          JOINT Head
          {
            OFFSET -0.0001 12.643 3.4389
            CHANNELS 6 Xposition Yposition Zposition Zrotation Xrotation Yrotation
            End Site
            {
              OFFSET 0.0001 17.6655 0.5274
            }
          }
        }
        JOINT LeftCollar
        {
          OFFSET 2.2603 21.606 7.4023
          CHANNELS 6 Xposition Yposition Zposition Zrotation Xrotation Yrotation
          JOINT LeftShoulder
          {
            OFFSET 13.5163 -1.1332 -5.0146
            CHANNELS 6 Xposition Yposition Zposition Zrotation Xrotation Yrotation
            JOINT LeftElbow
            {
              OFFSET -0.0995 -28.05 -0.2431
              CHANNELS 6 Xposition Yposition Zposition Zrotation Xrotation Yrotation
              JOINT LeftWrist
              {
                OFFSET 0.0679 -23.3996 -0.1402
                CHANNELS 6 Xposition Yposition Zposition Zrotation Xrotation Yrotation
                JOINT LeftFinger1
                {
                  OFFSET 0.7932 -9.069 2.5189
                  CHANNELS 6 Xposition Yposition Zposition Zrotation Xrotation Yrotation
                  JOINT LeftFinger11
                  {
                    OFFSET -0.8272 -3.3923 0.5977
                    CHANNELS 6 Xposition Yposition Zposition Zrotation Xrotation Yrotation
                    JOINT LeftFinger12
                    {
                      OFFSET -0.5649 -2.3158 0.4082
                      CHANNELS 6 Xposition Yposition Zposition Zrotation Xrotation Yrotation
                      End Site
                      {
                        OFFSET -0.4919 -1.6479 0.2673
                      }
                    }
                  }
                }
                JOINT LeftFinger2
                {
                  OFFSET 0.9159 -9.2044 0.2193
                  CHANNELS 6 Xposition Yposition Zposition Zrotation Xrotation Yrotation
                  JOINT LeftFinger21
                  {
                    OFFSET 0.0117 -4.1944 -0.0248
                    CHANNELS 6 Xposition Yposition Zposition Zrotation Xrotation Yrotation
                    JOINT LeftFinger22
                    {
                      OFFSET 0.0071 -2.3249 -0.0142
                      CHANNELS 6 Xposition Yposition Zposition Zrotation Xrotation Yrotation
                      End Site
                      {
                        OFFSET -0.1475 -2.0882 0.0028
                      }
                    }
                  }
                }
                JOINT LeftFinger3
                {
                  OFFSET 0.6113 -8.7231 -2.0637
                  CHANNELS 6 Xposition Yposition Zposition Zrotation Xrotation Yrotation
                  JOINT LeftFinger31
                  {
                    OFFSET -0.1927 -3.8059 -0.2383
                    CHANNELS 6 Xposition Yposition Zposition Zrotation Xrotation Yrotation
                    JOINT LeftFinger32
                    {
                      OFFSET -0.1091 -2.1688 -0.1362
                      CHANNELS 6 Xposition Yposition Zposition Zrotation Xrotation Yrotation
                      End Site
                      {
                        OFFSET -0.2358 -1.9176 -0.0906
                      }
                    }
                  }
                }
                JOINT LeftFinger4
                {
                  OFFSET -0.6151 -8.0947 -3.5641
                  CHANNELS 6 Xposition Yposition Zposition Zrotation Xrotation Yrotation
                  JOINT LeftFinger41
                  {
                    OFFSET -0.4882 -2.341 -0.6462
                    CHANNELS 6 Xposition Yposition Zposition Zrotation Xrotation Yrotation
                    JOINT LeftFinger42
                    {
                      OFFSET -0.3575 -1.7167 -0.4742
                      CHANNELS 6 Xposition Yposition Zposition Zrotation Xrotation Yrotation
                      End Site
                      {
                        OFFSET -0.4187 -1.5237 -0.3496
                      }
                    }
                  }
                }
                JOINT LeftFinger0
                {
                  OFFSET -1.42 -1.8761 1.4223
                  CHANNELS 6 Xposition Yposition Zposition Zrotation Xrotation Yrotation
                  JOINT LeftFinger01
                  {
                    OFFSET -1.1471 -3.4929 2.6334
                    CHANNELS 6 Xposition Yposition Zposition Zrotation Xrotation Yrotation
                    JOINT LeftFinger02
                    {
                      OFFSET -0.823 -2.3 1.6571
                      CHANNELS 6 Xposition Yposition Zposition Zrotation Xrotation Yrotation
                      End Site
                      {
                        OFFSET -0.5822 -1.6914 1.1582
                      }
                    }
                  }
                }
              }
            }
          }
        }
        JOINT RightCollar
        {
          OFFSET -2.2603 21.606 7.4023
          CHANNELS 6 Xposition Yposition Zposition Zrotation Xrotation Yrotation
          JOINT RightShoulder
          {
            OFFSET -13.5187 -1.1334 -5.0155
            CHANNELS 6 Xposition Yposition Zposition Zrotation Xrotation Yrotation
            JOINT RightElbow
            {
              OFFSET 0.0994 -28.0499 -0.2431
              CHANNELS 6 Xposition Yposition Zposition Zrotation Xrotation Yrotation
              JOINT RightWrist
              {
                OFFSET -0.0679 -23.3996 -0.1402
                CHANNELS 6 Xposition Yposition Zposition Zrotation Xrotation Yrotation
                JOINT RightFinger1
                {
                  OFFSET -0.7932 -9.0691 2.5189
                  CHANNELS 6 Xposition Yposition Zposition Zrotation Xrotation Yrotation
                  JOINT RightFinger11
                  {
                    OFFSET 0.8272 -3.3923 0.5977
                    CHANNELS 6 Xposition Yposition Zposition Zrotation Xrotation Yrotation
                    JOINT RightFinger12
                    {
                      OFFSET 0.565 -2.3158 0.4082
                      CHANNELS 6 Xposition Yposition Zposition Zrotation Xrotation Yrotation
                      End Site
                      {
                        OFFSET 0.4919 -1.6479 0.2673
                      }
                    }
                  }
                }
                JOINT RightFinger2
                {
                  OFFSET -0.916 -9.2044 0.2193
                  CHANNELS 6 Xposition Yposition Zposition Zrotation Xrotation Yrotation
                  JOINT RightFinger21
                  {
                    OFFSET -0.0117 -4.1944 -0.0248
                    CHANNELS 6 Xposition Yposition Zposition Zrotation Xrotation Yrotation
                    JOINT RightFinger22
                    {
                      OFFSET -0.0071 -2.3249 -0.0142
                      CHANNELS 6 Xposition Yposition Zposition Zrotation Xrotation Yrotation
                      End Site
                      {
                        OFFSET 0.1475 -2.0882 0.0028
                      }
                    }
                  }
                }
                JOINT RightFinger3
                {
                  OFFSET -0.6113 -8.7231 -2.0637
                  CHANNELS 6 Xposition Yposition Zposition Zrotation Xrotation Yrotation
                  JOINT RightFinger31
                  {
                    OFFSET 0.1927 -3.8059 -0.2383
                    CHANNELS 6 Xposition Yposition Zposition Zrotation Xrotation Yrotation
                    JOINT RightFinger32
                    {
                      OFFSET 0.1091 -2.1688 -0.1362
                      CHANNELS 6 Xposition Yposition Zposition Zrotation Xrotation Yrotation
                      End Site
                      {
                        OFFSET 0.2358 -1.9176 -0.0906
                      }
                    }
                  }
                }
                JOINT RightFinger4
                {
                  OFFSET 0.6151 -8.0947 -3.564
                  CHANNELS 6 Xposition Yposition Zposition Zrotation Xrotation Yrotation
                  JOINT RightFinger41
                  {
                    OFFSET 0.4882 -2.341 -0.6462
                    CHANNELS 6 Xposition Yposition Zposition Zrotation Xrotation Yrotation
                    JOINT RightFinger42
                    {
                      OFFSET 0.3574 -1.7166 -0.4742
                      CHANNELS 6 Xposition Yposition Zposition Zrotation Xrotation Yrotation
                      End Site
                      {
                        OFFSET 0.4187 -1.5237 -0.3496
                      }
                    }
                  }
                }
                JOINT RightFinger0
                {
                  OFFSET 1.4199 -1.8761 1.4221
                  CHANNELS 6 Xposition Yposition Zposition Zrotation Xrotation Yrotation
                  JOINT RightFinger01
                  {
                    OFFSET 1.1472 -3.4929 2.6336
                    CHANNELS 6 Xposition Yposition Zposition Zrotation Xrotation Yrotation
                    JOINT RightFinger02
                    {
                      OFFSET 0.8229 -2.3 1.6571
                      CHANNELS 6 Xposition Yposition Zposition Zrotation Xrotation Yrotation
                      End Site
                      {
                        OFFSET 0.5822 -1.6914 1.1582
                      }
                    }
                  }
                }
              }
            }
          }
        }
      }
    }
  }
  JOINT RightHip
  {
    OFFSET -9.412 3.9771 -0.7758
    CHANNELS 6 Xposition Yposition Zposition Zrotation Xrotation Yrotation
    JOINT RightKnee
    {
      OFFSET -0.7531 -40.938 0
      CHANNELS 6 Xposition Yposition Zposition Zrotation Xrotation Yrotation
      JOINT RightAnkle
      {
        OFFSET 0 -40.1986 0
        CHANNELS 6 Xposition Yposition Zposition Zrotation Xrotation Yrotation
        JOINT RightToe
        {
          OFFSET 0 -4.4182 9.239
          CHANNELS 6 Xposition Yposition Zposition Zrotation Xrotation Yrotation
          End Site
          {
            OFFSET 0 0 6.1981
          }
        }
      }
    }
  }
  JOINT LeftHip
  {
    OFFSET 9.4119 3.9773 -0.7758
    CHANNELS 6 Xposition Yposition Zposition Zrotation Xrotation Yrotation
    JOINT LeftKnee
    {
      OFFSET 0.7532 -40.9383 0
      CHANNELS 6 Xposition Yposition Zposition Zrotation Xrotation Yrotation
      JOINT LeftAnkle
      {
        OFFSET 0 -40.1986 0
        CHANNELS 6 Xposition Yposition Zposition Zrotation Xrotation Yrotation
        JOINT LeftToe
        {
          OFFSET 0 -4.4182 9.239
          CHANNELS 6 Xposition Yposition Zposition Zrotation Xrotation Yrotation
          End Site
          {
            OFFSET 0 0 6.1981
          }
        }
      }
    }
  }
}
MOTION
Frames:	4
Frame Time:	0.0333333
5.72205e-005 65.662 3.42586 0 0 -0 0 8.7983 -4.7612 0 0 -0 0 8.0291 0.4195 0 0 -0 0 9.9351 -2.2114 0 0 -0 0 22.3885 -0.4656 0 0 -0 -0.0001 12.643 3.4389 0 0 -0 2.2603 21.606 7.4023 0 0 -12.5014 13.5163 -1.1332 -5.0146 88.1196 14.2451 10.6914 -0.0995 -28.05 -0.2431 -0.00160068 -0.00239207 0.000740045 0.0679 -23.3996 -0.1402 -8.4365e-005 7.00714e-005 -9.52055e-007 0.7932 -9.069 2.5189 9.93923e-017 -1.98785e-016 -1.59028e-015 -0.8272 -3.3923 0.5977 9.93923e-017 -5.96354e-016 -1.59028e-015 -0.5649 -2.3158 0.4082 -9.93923e-017 -5.96354e-016 -1.59028e-015 0.9159 -9.2044 0.2193 9.93923e-017 -1.98785e-016 -1.59028e-015 0.0117 -4.1944 -0.0248 -0.0128176 0.00232552 8.52707e-005 0.0071 -2.3249 -0.0142 9.93923e-017 5.96354e-016 -0 0.6113 -8.7231 -2.0637 9.93923e-017 -1.98785e-016 -1.59028e-015 -0.1927 -3.8059 -0.2383 -0.0160551 0.00299681 0.000857156 -0.1091 -2.1688 -0.1362 -2.48481e-016 0 3.18055e-015 -0.6151 -8.0947 -3.5641 9.93923e-017 -1.98785e-016 -1.59028e-015 -0.4882 -2.341 -0.6462 -0.0125865 0.0031206 0.00282719 -0.3575 -1.7167 -0.4742 0 1.98785e-016 -0 -1.42 -1.8761 1.4223 9.93923e-017 -1.98785e-016 -1.59028e-015 -1.1471 -3.4929 2.6334 9.93923e-017 -5.96354e-016 -1.59028e-015 -0.823 -2.3 1.6571 -9.93923e-017 -5.96354e-016 -1.59028e-015 -2.2603 21.606 7.4023 -0.865644 0.16582 7.03859 -13.5187 -1.1334 -5.0155 -88.0329 10.2057 -10.5567 0.0994 -28.0499 -0.2431 0.0015593 -0.00248883 -0.000788628 -0.0679 -23.3996 -0.1402 7.87605e-005 4.10553e-005 1.24965e-005 -0.7932 -9.0691 2.5189 -3.97569e-016 -7.95139e-016 3.18055e-015 0.8272 -3.3923 0.5977 -1.98785e-016 -3.97569e-016 3.18055e-015 0.565 -2.3158 0.4082 -1.98785e-016 0 3.18055e-015 -0.916 -9.2044 0.2193 -3.97569e-016 -7.95139e-016 3.18055e-015 -0.0117 -4.1944 -0.0248 0.0129473 0.00231697 -8.70038e-005 -0.0071 -2.3249 -0.0142 9.93923e-017 -7.95139e-016 1.59028e-015 -0.6113 -8.7231 -2.0637 -3.97569e-016 -7.95139e-016 3.18055e-015 0.1927 -3.8059 -0.2383 0.0163314 0.00303369 -0.000872333 0.1091 -2.1688 -0.1362 3.97569e-016 7.95139e-016 -3.18055e-015 0.6151 -8.0947 -3.564 -3.97569e-016 -7.95139e-016 3.18055e-015 0.4882 -2.341 -0.6462 0.0145763 0.00367772 -0.00326275 0.3574 -1.7166 -0.4742 9.93923e-017 -3.97569e-016 -0 1.4199 -1.8761 1.4221 -3.97569e-016 -7.95139e-016 3.18055e-015 1.1472 -3.4929 2.6336 -1.98785e-016 -3.97569e-016 3.18055e-015 0.8229 -2.3 1.6571 -1.98785e-016 0 3.18055e-015 -9.412 3.9771 -0.7758 3.42482 1.32465 -0.0626183 -0.7531 -40.938 0 0.000117508 0.717283 0.000978199 0 -40.1986 0 -3.4257 -2.04197 -0.0604716 8.88178e-016 -4.4182 9.239 6.47761e-025 0 -0 9.4119 3.9773 -0.7758 -3.42483 1.34017 0.0627307 0.7532 -40.9383 -2.22045e-016 -0.000193936 0.682302 -0.0013703 -8.88179e-016 -40.1986 0 3.42574 -2.02253 0.0595886 -8.88178e-016 -4.4182 9.239 -8.45714e-024 0 -7.40531e-025 
8.7162 19.7682 4.23796 66.6666 4.26887e-007 5.1864 -3.55271e-015 8.7983 -4.7612 0.138894 4.05126 -0.123215 3.55271e-015 8.0291 0.4195 0.287756 8.10219 -0.257291 0 9.9351 -2.2114 0.287764 8.10222 -0.257294 7.10543e-015 22.3885 -0.4656 0.0153485 5.89967 -0.0042049 -0.0001 12.643 3.4389 -9.6781 7.21901 1.66429 2.2603 21.606 7.4023 -25.1874 4.09004 -26.9954 13.5163 -1.1332 -5.0146 74.4444 -16.035 9.12587 -0.0995 -28.05 -0.2431 -19.6297 -4.28938 -12.1547 0.0679 -23.3996 -0.1402 -5.22153 0.873784 -0.120487 0.7932 -9.069 2.5189 -3.18055e-015 4.77083e-015 1.27222e-014 -0.8272 -3.3923 0.5977 -1.41245e-030 6.36111e-015 1.27222e-014 -0.5649 -2.3158 0.4082 4.77083e-015 4.77083e-015 1.59028e-014 0.9159 -9.2044 0.2193 -3.18055e-015 4.77083e-015 1.27222e-014 0.0117 -4.1944 -0.0248 -0.0128406 0.0023291 8.94394e-005 0.0071 -2.3249 -0.0142 3.18055e-015 -1.59028e-015 6.36111e-015 0.6113 -8.7231 -2.0637 -3.18055e-015 4.77083e-015 1.27222e-014 -0.1927 -3.8059 -0.2383 -0.0160735 0.0029957 0.000863876 -0.1091 -2.1688 -0.1362 4.77083e-015 -4.77083e-015 9.54166e-015 -0.6151 -8.0947 -3.5641 -3.18055e-015 4.77083e-015 1.27222e-014 -0.4882 -2.341 -0.6462 -0.0125791 0.00311689 0.00282723 -0.3575 -1.7167 -0.4742 -3.18055e-015 -6.36111e-015 1.27222e-014 -1.42 -1.8761 1.4223 -3.18055e-015 4.77083e-015 1.27222e-014 -1.1471 -3.4929 2.6334 -1.41245e-030 6.36111e-015 1.27222e-014 -0.823 -2.3 1.6571 4.77083e-015 4.77083e-015 1.59028e-014 -2.2603 21.606 7.4023 -1.31806 3.47613 3.11684 -13.5187 -1.1334 -5.0155 -24.0813 24.1183 -19.1053 0.0994 -28.0499 -0.2431 38.3884 -73.8685 42.9994 -0.0679 -23.3996 -0.1402 -3.36484 -5.8555 -10.6057 -0.7932 -9.0691 2.5189 1.22801e-005 1.72301e-006 -6.79223e-006 0.8272 -3.3923 0.5977 -2.1204e-006 7.70239e-006 3.13328e-006 0.565 -2.3158 0.4082 2.84277e-006 3.43397e-006 3.17662e-006 -0.916 -9.2044 0.2193 1.22801e-005 1.72301e-006 -6.79223e-006 -0.0117 -4.1944 -0.0248 0.0129288 0.00231937 -8.4527e-005 -0.0071 -2.3249 -0.0142 2.84259e-006 3.09262e-006 3.17673e-006 -0.6113 -8.7231 -2.0637 1.22801e-005 1.72301e-006 -6.79223e-006 0.1927 -3.8059 -0.2383 0.0163203 0.00303929 -0.000871513 0.1091 -2.1688 -0.1362 -9.49188e-007 1.09322e-005 1.12245e-006 0.6151 -8.0947 -3.564 1.22801e-005 1.72301e-006 -6.79223e-006 0.4882 -2.341 -0.6462 0.014588 0.00368473 -0.00326291 0.3574 -1.7166 -0.4742 5.30699e-006 1.29459e-006 -1.28932e-006 1.4199 -1.8761 1.4221 1.22801e-005 1.72301e-006 -6.79223e-006 1.1472 -3.4929 2.6336 -2.1204e-006 7.70239e-006 3.13328e-006 0.8229 -2.3 1.6571 2.84277e-006 3.43397e-006 3.17662e-006 -9.412 3.9771 -0.7758 -12.3272 -40.1566 -22.1586 -0.7531 -40.938 1.33227e-015 4.15845 56.1254 -5.11838 1.77636e-015 -40.1986 0 -5.993 4.63814 -0.768513 3.55271e-015 -4.4182 9.239 3.97569e-015 3.18055e-015 -1.59028e-015 9.4119 3.9773 -0.7758 11.0626 -45.9561 41.0176 0.7532 -40.9383 0 -63.4071 73.8282 70.1151 1.77636e-015 -40.1986 -7.10543e-015 3.0119 5.61422 -5.03406 0 -4.4182 9.239 3.18055e-015 -6.36111e-015 -6.36111e-015 
9.3332 1.38105 4.70299 96.6667 0 7.52028 1.11022e-016 8.7983 -4.7612 0.199633 5.90269 -0.185075 0 8.0291 0.4195 0.421958 11.8047 -0.394115 -3.88578e-016 9.9351 -2.2114 0.42195 11.8047 -0.394115 5.55111e-017 22.3885 -0.4656 -0.0544542 8.68164 0.0147695 -0.0001 12.643 3.4389 -14.2762 10.4595 2.46067 2.2603 21.606 7.4023 -35.5205 5.51641 -33.1116 13.5163 -1.1332 -5.0146 69.4023 -30.0915 8.88909 -0.0995 -28.05 -0.2431 -29.4776 -6.93419 -17.2331 0.0679 -23.3996 -0.1402 -6.96077 1.55429 -0.130483 0.7932 -9.069 2.5189 1.59028e-015 6.36111e-015 -0 -0.8272 -3.3923 0.5977 -6.36111e-015 7.95139e-015 -6.36111e-015 -0.5649 -2.3158 0.4082 -8.82781e-032 1.59028e-015 3.18055e-015 0.9159 -9.2044 0.2193 1.59028e-015 6.36111e-015 -0 0.0117 -4.1944 -0.0248 -0.0128346 0.00232124 9.03734e-005 0.0071 -2.3249 -0.0142 6.36111e-015 -7.95139e-015 1.59028e-014 0.6113 -8.7231 -2.0637 1.59028e-015 6.36111e-015 -0 -0.1927 -3.8059 -0.2383 -0.0160454 0.0029935 0.000857196 -0.1091 -2.1688 -0.1362 0 9.54166e-015 -0 -0.6151 -8.0947 -3.5641 1.59028e-015 6.36111e-015 -0 -0.4882 -2.341 -0.6462 -0.0126313 0.00313287 0.00284083 -0.3575 -1.7167 -0.4742 4.5321e-006 9.87171e-007 5.84974e-006 -1.42 -1.8761 1.4223 1.59028e-015 6.36111e-015 -0 -1.1471 -3.4929 2.6334 -6.36111e-015 7.95139e-015 -6.36111e-015 -0.823 -2.3 1.6571 -8.82781e-032 1.59028e-015 3.18055e-015 -2.2603 21.606 7.4023 -1.66044 5.28571 1.18092 -13.5187 -1.1334 -5.0155 5.09344 28.9857 -21.2079 0.0994 -28.0499 -0.2431 155.594 -65.1295 162.809 -0.0679 -23.3996 -0.1402 -4.85709 -8.92166 -15.432 -0.7932 -9.0691 2.5189 3.18055e-015 9.54166e-015 1.59028e-015 0.8272 -3.3923 0.5977 1.59028e-015 0 3.97569e-016 0.565 -2.3158 0.4082 1.59028e-015 -9.54166e-015 -0 -0.916 -9.2044 0.2193 3.18055e-015 9.54166e-015 1.59028e-015 -0.0117 -4.1944 -0.0248 0.0129411 0.00232369 -8.01784e-005 -0.0071 -2.3249 -0.0142 -2.1815e-007 9.5364e-007 -3.42861e-006 -0.6113 -8.7231 -2.0637 3.18055e-015 9.54166e-015 1.59028e-015 0.1927 -3.8059 -0.2383 0.0163531 0.00305039 -0.000873401 0.1091 -2.1688 -0.1362 1.59028e-015 1.27222e-014 -1.19271e-015 0.6151 -8.0947 -3.564 3.18055e-015 9.54166e-015 1.59028e-015 0.4882 -2.341 -0.6462 0.0145887 0.00368902 -0.00325852 0.3574 -1.7166 -0.4742 6.49074e-006 -3.68953e-006 -4.01659e-006 1.4199 -1.8761 1.4221 3.18055e-015 9.54166e-015 1.59028e-015 1.1472 -3.4929 2.6336 1.59028e-015 0 3.97569e-016 0.8229 -2.3 1.6571 1.59028e-015 -9.54166e-015 -0 -9.412 3.9771 -0.7758 -36.0596 -54.0969 -44.3367 -0.7531 -40.938 -3.55271e-015 24.2566 81.8142 -25.0537 1.77636e-015 -40.1986 7.10543e-015 -7.13082 6.94245 -1.24198 0 -4.4182 9.239 1.59028e-015 3.18055e-015 -3.18055e-015 9.4119 3.9773 -0.7758 41.4849 -51.3414 76.519 0.7532 -40.9383 -2.88658e-015 -141.48 54.7846 145.116 7.10543e-015 -40.1986 0 3.17684 9.44113 -6.7487 0 -4.4182 9.239 -3.72235e-006 -2.60233e-007 2.68724e-006 
9.6916 5.43168 4.70998 90 0 7.00164 0 8.7983 -4.7612 0.185975 5.55378 -0.171873 0 8.0291 0.4195 0.39155 11.107 -0.364547 0 9.9351 -2.2114 0.391562 11.107 -0.364546 0 22.3885 -0.4656 -0.209661 8.34595 0.0571022 -0.0001 12.643 3.4389 -13.4767 9.73262 2.33963 2.2603 21.606 7.4023 -32.481 4.75479 -30.7273 13.5163 -1.1332 -5.0146 70.457 -27.4707 8.96718 -0.0995 -28.05 -0.2431 -29.686 -7.73858 -16.1012 0.0679 -23.3996 -0.1402 -5.21451 2.03635 -0.0928287 0.7932 -9.069 2.5189 -4.77083e-015 3.18055e-015 -9.54166e-015 -0.8272 -3.3923 0.5977 -6.36111e-015 1.59028e-015 -3.18055e-015 -0.5649 -2.3158 0.4082 4.77083e-015 -3.18055e-015 -0 0.9159 -9.2044 0.2193 -4.77083e-015 3.18055e-015 -9.54166e-015 0.0117 -4.1944 -0.0248 -0.0127853 0.00232984 7.94262e-005 0.0071 -2.3249 -0.0142 1.59028e-015 3.18055e-015 -0 0.6113 -8.7231 -2.0637 -4.77083e-015 3.18055e-015 -9.54166e-015 -0.1927 -3.8059 -0.2383 -0.0160146 0.00299418 0.000857498 -0.1091 -2.1688 -0.1362 -3.53113e-031 1.59028e-015 1.27222e-014 -0.6151 -8.0947 -3.5641 -4.77083e-015 3.18055e-015 -9.54166e-015 -0.4882 -2.341 -0.6462 -0.0125008 0.00310458 0.00280759 -0.3575 -1.7167 -0.4742 0 0 -3.18055e-015 -1.42 -1.8761 1.4223 -4.77083e-015 3.18055e-015 -9.54166e-015 -1.1471 -3.4929 2.6334 -6.36111e-015 1.59028e-015 -3.18055e-015 -0.823 -2.3 1.6571 4.77083e-015 -3.18055e-015 -0 -2.2603 21.606 7.4023 -2.23426 5.62536 1.25789 -13.5187 -1.1334 -5.0155 -0.654465 28.2052 -21.0915 0.0994 -28.0499 -0.2431 145.013 -71.3614 151.702 -0.0679 -23.3996 -0.1402 -4.43077 -9.13259 -14.5845 -0.7932 -9.0691 2.5189 7.87035e-008 8.39762e-007 -3.06725e-006 0.8272 -3.3923 0.5977 2.05892e-006 -8.28805e-007 2.5143e-006 0.565 -2.3158 0.4082 -7.95139e-016 0 -1.78906e-015 -0.916 -9.2044 0.2193 7.87035e-008 8.39762e-007 -3.06725e-006 -0.0117 -4.1944 -0.0248 0.0129663 0.00232041 -8.08477e-005 -0.0071 -2.3249 -0.0142 7.95139e-016 6.36111e-015 -1.59028e-015 -0.6113 -8.7231 -2.0637 7.87035e-008 8.39762e-007 -3.06725e-006 0.1927 -3.8059 -0.2383 0.0163427 0.00303711 -0.000870237 0.1091 -2.1688 -0.1362 2.20695e-032 -3.18055e-015 3.97569e-016 0.6151 -8.0947 -3.564 7.87035e-008 8.39762e-007 -3.06725e-006 0.4882 -2.341 -0.6462 0.0145896 0.00368425 -0.00326034 0.3574 -1.7166 -0.4742 -1.66951e-008 1.32389e-006 -3.65554e-006 1.4199 -1.8761 1.4221 7.87035e-008 8.39762e-007 -3.06725e-006 1.1472 -3.4929 2.6336 2.05892e-006 -8.28805e-007 2.5143e-006 0.8229 -2.3 1.6571 -7.95139e-016 0 -1.78906e-015 -9.412 3.9771 -0.7758 -29.6622 -51.8935 -38.4428 -0.7531 -40.938 8.88179e-016 13.9382 76.9516 -14.7793 -2.66454e-015 -40.1986 0 -6.8366 6.12764 -1.18704 3.55271e-015 -4.4182 9.23901 -8.33838e-006 1.13724e-006 1.40186e-006 9.4119 3.9773 -0.7758 34.3994 -51.5961 68.5786 0.7532 -40.9383 2.66454e-015 -134.465 61.1313 139.035 3.55271e-015 -40.1986 -7.10543e-015 3.11879 8.39456 -6.3226 -3.55271e-015 -4.4182 9.23901 -5.67942e-006 -3.27321e-006 2.35109e-006 
